PathFileType	4	(X/Y/Z)	Patient4_TMGait_0pt4_01_right_25.trc.trc
DataRate	CameraRate	NumFrames	NumMarkers	Units	OrigDataRate	OrigDataStartFrame	OrigNumFrames
76.502732240437	76.502732240437	6	33	mm	76.502732240437	53	       141
Frame#	Time	Sacral			L.Shoulder			Chest			R.Shoulder			Neck			R.ASIS			L.ASIS			R.Thigh.Superior			R.Thigh.Lateral			R.Thigh.Inferior			R.Patella			L.Thigh.Superior			L.Thigh.Lateral			L.Thigh.Inferior			L.Patella			L.Shank.Superior			L.Shank.Lateral			L.Shank.Inferior			R.Shank.Superior			R.Shank.Lateral			R.Shank.Inferior			R.Heel			R.Midfoot.Superior			R.Midfoot.Lateral			R.Toe			L.Heel			L.Midfoot.Lateral			L.Midfoot.Superior			L.Toe			L.Elbow			L.Wrist			R.Elbow			R.Wrist			
		X1	Y1	Z1	X2	Y2	Z2	X3	Y3	Z3	X4	Y4	Z4	X5	Y5	Z5	X6	Y6	Z6	X7	Y7	Z7	X8	Y8	Z8	X9	Y9	Z9	X10	Y10	Z10	X11	Y11	Z11	X12	Y12	Z12	X13	Y13	Z13	X14	Y14	Z14	X15	Y15	Z15	X16	Y16	Z16	X17	Y17	Z17	X18	Y18	Z18	X19	Y19	Z19	X20	Y20	Z20	X21	Y21	Z21	X22	Y22	Z22	X23	Y23	Z23	X24	Y24	Z24	X25	Y25	Z25	X26	Y26	Z26	X27	Y27	Z27	X28	Y28	Z28	X29	Y29	Z29	X30	Y30	Z30	X31	Y31	Z31	X32	Y32	Z32	X33	Y33	Z33	

53	32.839714285714	872.736346268853	1000.495456034319	528.421070602649	1010.604762803829	1433.499114119773	326.842822141275	1133.934369607010	1373.245657444484	476.444814739687	1067.354713836008	1445.951408244050	657.769687867406	1013.506043210548	1497.860893584732	483.589520656506	1112.535915625427	945.854943040964	625.232932463221	1073.379755907609	969.403085218621	353.499877919027	1140.707718933307	739.070770273717	591.378721013626	1056.555696065489	631.973807085479	656.398626496628	1125.298162067244	576.934069907964	572.575927454442	1118.809935010666	489.616838440310	576.854985354080	1163.496604716087	787.172838150274	375.980935388611	1118.992172417099	659.175459344631	296.976206077222	1227.409850219677	600.322336672571	350.705107250724	1245.002307957575	514.759772854664	341.255073349872	1189.659493868538	442.585297792319	333.539892685454	1057.217423992450	375.813849589797	288.324958112755	1073.558242072896	244.583073357781	337.970450517242	1087.289408528379	401.333456134916	584.540011211801	1014.501024259443	300.623444677473	649.960525496095	1047.392721161265	204.703401794448	582.326802955681	904.292962661954	43.454020829669	556.836243153360	1077.037934553468	96.593694365249	587.292119608029	989.679639405040	37.252770337582	629.140645969871	1197.723561699344	42.841486605839	611.127727002861	902.662068623760	141.796414756831	381.134461806120	963.545371456059	112.108342312618	296.148892674857	1065.562853753939	140.888209137813	313.618952858888	1162.580716415598	48.933212235889	276.176065697776	970.712623342959	1075.497917010913	234.645089628612	1025.111775959883	821.017010604800	225.191146727541	1142.845428965778	1113.132042442255	793.870759498820	1371.559236647979	1008.999036663610	737.718748662438	
54	32.852785714286	871.989010284560	1001.459266164187	529.915592611251	1009.365971462799	1434.035064947913	327.911893035162	1133.821305696221	1373.402260404916	476.367897142730	1069.075922269430	1446.257095990218	658.288152350937	1013.958745606205	1498.256591418725	484.572392809110	1112.153982657301	945.739956667172	625.132330755612	1071.528748189574	970.130898212067	353.650350980526	1137.537885904660	738.404861207266	590.743494994820	1052.702373760558	632.173213242567	656.726821674194	1119.952180011841	576.442901497625	572.439641958695	1112.602838784483	489.622440272605	576.824764745623	1161.911062675101	788.716021756497	376.404484417091	1118.557451335607	660.599185434516	297.009415035276	1226.742203683255	602.297856380064	351.635961246457	1245.826614327323	518.038225633582	341.791526347535	1193.619246086002	444.935736622316	333.538589381377	1065.044330813654	371.564946191844	287.761064648363	1088.406051229199	240.990537374272	336.852184630158	1081.315321802407	401.413196126352	584.721259979650	1008.782169271378	300.580043604431	650.120716873683	1041.834058215170	204.786707762852	582.465904680997	898.968273143115	43.370718590725	556.902184582927	1071.719075164975	96.595786465787	587.334470187626	984.366305694453	37.216120109396	629.208039733026	1192.391312846403	42.965854947872	611.175151861507	923.494384861837	128.726123343884	379.594225994697	985.830327714493	102.866777902283	294.451801147509	1086.107205480727	137.074731858894	312.053737428519	1188.034505263045	50.985562755225	274.210321084739	960.491249962016	1076.970127264809	237.046542813947	1007.327590639360	821.080303316693	228.353702565436	1151.693868969963	1115.480274438280	793.568027206394	1384.536377280129	1024.838387017072	732.960124702708	
55	32.865857142857	871.188355117612	1002.373193832219	531.244605409098	1008.250600210698	1434.457277848806	328.824326597416	1133.837998350351	1373.365791899906	476.087018116367	1071.018725275970	1446.411297898815	658.608180389638	1014.563067403991	1498.537089321397	485.373844238316	1111.732583856976	945.514784996830	624.851712061577	1069.653700036492	970.674871111808	353.618056084542	1134.332003068425	737.682151384120	590.051894619173	1048.824156256577	632.335010087000	657.021131329147	1114.558082677456	575.932225078618	572.278806150470	1106.376433239721	489.620604269411	576.810629673891	1160.041620525525	789.874907549935	376.813430206482	1117.830005038457	661.740675261382	296.918085152099	1225.494242982917	603.787710087758	352.763807891526	1246.065511317799	520.998553292377	342.471368020328	1197.127681190139	447.131794307894	333.604011489807	1073.029841441530	367.147533907144	286.916735345746	1103.433611485604	237.611570134841	335.631510942887	1075.320306697294	401.499232910065	584.903295311990	1003.058851740897	300.519472597338	650.282113409408	1036.248239231056	204.858704664138	582.589037572072	893.636493658080	43.280440478029	556.955032312726	1066.387028545911	96.587756281072	587.361491768977	979.050497424312	37.172354733252	629.267608444843	1187.058133549211	43.094699957843	611.211309947391	945.040394642685	116.050183266657	377.557682384710	1008.896926174830	94.044432621721	292.502555815400	1107.087102318807	133.640626286714	310.490608278291	1213.766735803226	53.601433598132	272.697453700617	950.303604468472	1078.615800435153	239.260143213308	990.233940204585	821.642081336344	231.268212176052	1160.219409443391	1117.737753898372	793.010430733715	1396.296917832215	1040.694433227228	727.995166195270	
56	32.878928571429	870.342476744526	1003.213874900765	532.414561918233	1007.258250038969	1434.763437260781	329.570770210083	1133.970318533641	1373.133482981854	475.601820343372	1073.151930568772	1446.406389581053	658.723090788131	1015.306473842275	1498.697919060190	485.987967921614	1111.272518059312	945.181266505057	624.400953954031	1067.765832742037	971.020371250426	353.411286450328	1131.153509501232	736.910908496273	589.363339750608	1044.968865704653	632.449344923682	657.283718232434	1109.207681385944	575.400129624295	572.117920853254	1100.231718624307	489.597999289952	576.824142193962	1157.900676738044	790.655024998355	377.209701140929	1116.830381868494	662.610253444393	296.695170207612	1223.738935999167	604.831261042733	354.006911872423	1245.791414057559	523.657995284169	343.244153398694	1200.199569271172	449.199858869530	333.734419770313	1081.140491933219	362.754644494023	285.797892877193	1118.419760258749	234.648574401943	334.381941208818	1069.383020833525	401.579968253696	585.086038232517	997.387700021540	300.445250992234	650.452082742513	1030.670433558985	204.913083958339	582.699020358984	888.302769260293	43.189594246049	556.999606964772	1061.047884600535	96.570628804829	587.379277550269	973.735653779007	37.124007738330	629.322639198407	1181.727926361607	43.217491092222	611.238325622087	966.938109389768	104.199889573014	375.098494924510	1032.400386229590	85.974181021864	290.412617501324	1128.182526875858	130.804161385163	309.047500907293	1239.360049703700	56.866844212313	271.835959983664	940.317899653617	1080.399493911731	241.308286402565	973.866377732496	822.591873854237	233.919731773839	1168.436721636520	1119.861177048694	792.200581573804	1406.848926503184	1056.383313284752	722.865991010115	
57	32.892000000000	869.466411447903	1003.967616683397	533.430017434062	1006.387128356295	1434.962485920883	330.143630975311	1134.200218404110	1372.719975733578	474.918743479122	1075.431000596779	1446.250263624808	658.629353996572	1016.167772576548	1498.744673403099	486.411060776123	1110.781624503408	944.750796843933	623.794722705634	1065.882446128625	971.169917433570	353.041214862124	1128.060648085154	736.103000238520	588.723091117272	1041.180162418765	632.512496799576	657.509902452698	1103.982450492339	574.846741765136	571.969343837762	1094.258192534358	489.543440665490	576.865265996080	1155.513356394446	791.075682802058	377.581167696068	1115.572545399713	663.223403824493	296.334849366467	1221.559834419915	605.476858762766	355.255928139480	1245.069637290200	526.034943927618	344.047965150601	1202.846365661799	451.157988028531	333.918007153536	1089.303042366736	358.546398441333	284.429520000259	1133.129488068749	232.243394149369	333.172936163877	1063.571395018979	401.644694283087	585.261746695323	991.816656790816	300.363917555958	650.631676525702	1025.131511859220	204.947039844237	582.797742323475	882.972168552803	43.104979471793	557.040732047508	1055.708404065452	96.546244584084	587.394048028435	968.425375197475	37.074122087968	629.376349205108	1176.404249484806	43.324347528647	611.258965478663	988.788977369790	93.507708224277	372.319606165794	1055.956373561191	78.887148428827	288.303646204203	1149.060432930306	128.699052689232	307.826538709293	1264.409466923742	60.783014151291	271.778182715920	930.698464887128	1082.286043659676	243.201943221968	958.261900148209	823.838337085956	236.300545371705	1176.354500973890	1121.825129250643	791.133613991473	1416.220322860223	1071.726485704089	717.611063751116	
58	32.905071428571	868.581675530387	1004.629283444708	534.292540672943	1005.633787786255	1435.070845824239	330.537156087853	1134.507295501552	1372.153769416958	474.050298212553	1077.801743827638	1445.963725537856	658.326965321317	1017.119057003959	1498.690633654960	486.641307670876	1110.274308535516	944.242451011158	623.051463885557	1064.025423596588	971.140081941942	352.520866530577	1125.103104010103	735.272702118993	588.157594034113	1037.496798458764	632.526491481315	657.689084740338	1098.951113016930	574.275007479325	571.834148843693	1088.529572165551	489.448465745893	576.923998570063	1152.922826271277	791.167827513170	377.901826315899	1114.066338986897	663.594754158557	295.838089388820	1219.049496521900	605.772973740237	356.387812890727	1243.957110106337	528.139717004292	344.817373543048	1205.074623470552	453.009163359522	334.132875107344	1097.398434404752	354.640371282043	282.862310957551	1147.319913925572	230.467385525578	332.062447789867	1057.940590453255	401.684834259531	585.417737328997	986.383131966113	300.284527437550	650.817417973085	1019.656677589803	204.961082136998	582.886513116846	877.648888694623	43.033635932806	557.082753333370	1050.375430898528	96.516816469556	587.411798485144	963.122766676358	37.025866273229	629.431359343049	1171.090044042117	43.406534162989	611.276178871889	1010.176149608745	84.193927237461	369.356643895376	1079.142817871168	72.906205102321	286.298946155161	1169.377617995624	127.366100887932	306.898956628356	1288.518171597015	65.257132632466	272.590857528019	921.595717928440	1084.239373162968	244.938217318184	943.465663663448	825.306231947138	238.406328963533	1183.971551242616	1123.620467632704	789.799815579117	1424.458014906243	1086.555330647702	712.264875601784	
